<svg xmlns="http://www.w3.org/2000/svg" width="1024" height="1024" viewBox="0 0 1024 1024"><g transform="translate(512,520) scale(1.08) translate(-505,-470)"><circle cx="712" cy="292" r="82" fill="#F7C63B"/><line x1="470" y1="466" x2="470" y2="720" stroke="#CDEAF7" stroke-width="13" stroke-linecap="round"/><path d="M 470.0 470.0 L 702.0 470.0 A 232 232 0 0 1 679.0 369.3 Z" fill="#F7C63B"/><path d="M 470.0 470.0 L 679.0 369.3 A 232 232 0 0 1 614.6 288.6 Z" fill="#FFFFFF"/><path d="M 470.0 470.0 L 614.6 288.6 A 232 232 0 0 1 521.6 243.8 Z" fill="#F7C63B"/><path d="M 470.0 470.0 L 521.6 243.8 A 232 232 0 0 1 418.4 243.8 Z" fill="#FFFFFF"/><path d="M 470.0 470.0 L 418.4 243.8 A 232 232 0 0 1 325.4 288.6 Z" fill="#F7C63B"/><path d="M 470.0 470.0 L 325.4 288.6 A 232 232 0 0 1 261.0 369.3 Z" fill="#FFFFFF"/><path d="M 470.0 470.0 L 261.0 369.3 A 232 232 0 0 1 238.0 470.0 Z" fill="#F7C63B"/></g></svg>
